<svg width="2001" height="92" viewBox="0 0 2001 92" fill="none" xmlns="http://www.w3.org/2000/svg">
<path d="M1291.37 74.4238C1291.03 74.4355 1290.69 74.447 1290.35 74.4266C1289.68 74.4017 1288.99 74.3267 1288.3 74.2767L1288.3 73.1781C1286.67 73.0201 1285.08 72.5339 1283.65 70.7496C1283.36 70.3909 1283.03 70.0945 1282.7 69.7983L1282.7 69.7974C1282.17 69.3206 1281.64 68.8445 1281.26 68.1103C1280.69 66.9882 1279.97 66.4742 1279.26 65.9727C1279 65.7887 1278.75 65.6061 1278.5 65.3961C1277.22 64.3137 1275.72 63.8475 1274.28 63.4728C1272.39 62.9978 1270.49 62.7011 1268.59 62.4044L1268.59 62.4041L1268.58 62.4019C1268.23 62.3485 1267.89 62.2951 1267.55 62.2406C1266.84 62.1448 1266.1 62.1157 1265.41 62.3633C1264.28 62.7692 1263.14 63.2854 1262.06 64.0098C1260.96 64.73 1259.89 64.9298 1258.84 64.0535L1258.77 63.9954L1258.69 63.9309L1258.62 63.8764C1258 63.3796 1257.33 62.8503 1256.86 62.0303C1256.06 60.5649 1255.31 59.8302 1254.24 61.2373C1253.62 59.7603 1252.79 59.8876 1251.99 60.0118C1251.88 60.0282 1251.78 60.0445 1251.67 60.057C1251.45 60.089 1251.22 60.1099 1250.98 60.1308C1250.11 60.2095 1249.22 60.2904 1248.51 60.9708C1247.66 61.8014 1246.95 61.4661 1246.23 61.1289C1245.93 60.9877 1245.63 60.8463 1245.32 60.7898C1245.29 60.7898 1245.25 60.7898 1245.21 60.8127C1244.59 61.2797 1243.93 61.3814 1243.27 61.4832C1242.94 61.5342 1242.61 61.5854 1242.29 61.6827C1241.28 61.972 1240.9 61.6973 1240.34 60.0924C1240.28 59.9042 1240.22 59.6945 1240.15 59.4812C1239.95 58.8142 1239.74 58.1113 1239.44 57.9173C1239.27 57.8088 1239.1 57.695 1238.93 57.5809L1238.93 57.579C1238 56.9433 1237.05 56.3012 1235.99 56.5269C1235.45 56.6409 1234.89 56.5315 1234.34 56.4245L1234.33 56.4226L1234.32 56.42C1234.25 56.4054 1234.17 56.3909 1234.1 56.377C1233.9 56.3438 1233.71 56.2445 1233.52 56.1461C1233.29 56.0284 1233.06 55.9119 1232.83 55.9108C1231.53 55.9711 1230.24 56.1002 1228.93 56.3188C1228.44 56.4083 1227.94 56.7684 1227.47 57.1326L1227.33 57.249C1226.58 57.8435 1225.85 58.4227 1224.98 58.4169C1224.27 58.4107 1223.49 58.4752 1222.87 58.9726C1221.29 60.2881 1219.67 60.3422 1218.11 59.4431C1216.72 58.673 1215.36 58.9228 1214 59.1739C1213.57 59.2547 1213.13 59.3356 1212.69 59.3827C1212.57 59.3992 1212.46 59.5575 1212.35 59.7038C1212.31 59.7604 1212.27 59.8152 1212.23 59.8593C1211.23 58.1421 1211.09 58.0256 1209.89 59.2745C1209.13 60.0675 1208.29 60.5879 1207.52 60.3318C1206.7 60.0508 1206.05 60.5254 1205.51 61.1623C1203.48 63.5019 1201.27 63.3479 1199.13 62.8109C1197.43 62.3633 1196.12 63.2688 1194.9 64.5843C1194.77 64.5147 1194.65 64.441 1194.54 64.3708L1194.54 64.3688C1194.27 64.2069 1194.04 64.0633 1193.79 64.0286C1193.59 63.9968 1193.38 64.0399 1193.17 64.0831C1192.9 64.1388 1192.63 64.1945 1192.39 64.0889C1191.02 63.4624 1189.73 63.8183 1188.41 64.5635C1187.95 64.8111 1187.4 64.8299 1186.91 64.7133C1186.32 64.5554 1185.74 64.3056 1185.16 64.0602C1184.88 63.9401 1184.6 63.821 1184.33 63.7143C1183.28 66.7678 1182.65 67.286 1181.13 66.4098C1180.65 67.823 1179.89 68.1831 1179 68.1769C1178.25 68.1936 1177.49 68.2582 1176.75 68.435C1176.24 68.5474 1175.75 68.8638 1175.25 69.1323C1175.01 69.2468 1174.77 69.4736 1174.7 69.5174C1174.55 69.2485 1174.41 68.9625 1174.29 68.6945L1174.29 68.6852C1174.03 68.1353 1173.81 67.6625 1173.54 67.5691C1173.27 67.4712 1172.95 67.8002 1172.68 68.0712L1172.68 68.0728C1172.57 68.1816 1172.48 68.2809 1172.39 68.3393C1172.17 68.171 1171.96 67.9775 1171.76 67.7903L1171.76 67.7887C1171.32 67.386 1170.92 67.0121 1170.5 66.978C1169.03 66.8531 1167.54 66.8427 1166.12 67.2674C1165.77 67.3708 1165.46 67.318 1165.15 67.2662C1164.85 67.2169 1164.56 67.1685 1164.26 67.2569L1164.09 67.3013C1163.73 67.3929 1163.37 67.4837 1163.02 67.5635C1162.83 67.6049 1162.65 67.6433 1162.46 67.6774C1162.33 67.6932 1162.18 67.6763 1162.04 67.6596C1161.81 67.6323 1161.58 67.605 1161.38 67.717C1160.44 68.2102 1159.62 68.2977 1158.6 67.6753C1157.76 67.171 1156.83 67.1493 1155.89 67.1276C1155.54 67.1195 1155.19 67.1113 1154.85 67.0779C1154.63 67.0758 1154.36 67.234 1154.18 67.4858C1153.54 68.3934 1152.86 68.2997 1152.14 68.0188C1151.4 67.7419 1150.73 67.898 1150.19 69.0803C1150 69.4883 1149.66 69.8983 1149.4 69.9212C1148.96 69.9432 1148.52 69.8876 1148.09 69.832L1148.09 69.8316C1147.78 69.7928 1147.48 69.7541 1147.17 69.7422C1146.58 69.7172 1145.98 69.7817 1145.4 69.8712C1145.18 69.9032 1144.97 69.9491 1144.75 69.9949C1143.8 70.1991 1142.84 70.4031 1141.95 69.3883C1141.4 68.768 1140.88 69.1553 1140.57 69.6547C1139.73 69.124 1139.04 68.639 1138.32 68.2685C1137.85 68.0385 1137.38 67.887 1136.9 67.735C1136.75 67.6888 1136.61 67.6426 1136.46 67.5941C1136.24 67.5249 1136.02 67.4433 1135.81 67.3617L1135.8 67.3606L1135.8 67.3602C1135.36 67.1942 1134.91 67.0281 1134.47 66.9655C1134.33 66.9445 1134.19 66.918 1134.05 66.8912C1133.38 66.7639 1132.67 66.6295 1132.11 67.0405C1130.99 67.8564 1129.94 67.6419 1128.84 67.3589C1128.45 67.2673 1128.02 67.2194 1127.68 67.4671C1126.68 68.1914 1125.89 67.8439 1125.25 66.3327C1124.92 65.5772 1124.5 65.0943 1123.92 65.113L1120.19 65.0859C1119.38 62.8899 1119.2 62.7963 1117.76 63.7476C1117.62 63.8449 1117.49 63.9626 1117.35 64.0815C1117.2 64.2117 1117.05 64.3434 1116.89 64.4511C1116.68 64.5843 1116.43 64.6967 1116.2 64.6946C1115.89 64.72 1115.58 64.7344 1115.28 64.7451C1114.8 64.7616 1114.33 64.7692 1113.85 64.7945C1113.77 64.8006 1113.68 64.8286 1113.6 64.8567L1113.6 64.8571C1113.41 64.9161 1113.23 64.9754 1113.14 64.8362C1112.67 63.9599 1112.1 63.9339 1111.52 63.9079C1111.23 63.8951 1110.95 63.8823 1110.68 63.7684C1110.17 63.5546 1109.72 63.7577 1109.26 63.9655C1109.12 64.0288 1108.98 64.0926 1108.83 64.1451C1107.77 64.5101 1106.68 64.6618 1105.6 64.8126L1105.59 64.8139L1105.59 64.8144C1105.35 64.848 1105.11 64.8815 1104.87 64.9173C1104.75 64.9275 1104.64 64.8118 1104.52 64.6923C1104.42 64.5909 1104.31 64.4866 1104.2 64.4532C1103.68 64.2928 1103.14 64.1972 1102.6 64.1701C1102.51 64.1604 1102.41 64.2023 1102.31 64.2505L1102.27 64.2737C1102.13 64.3434 1102 64.4112 1101.89 64.347C1101.1 63.8391 1100.42 64.2221 1099.76 65.1109C1099.16 64.4448 1098.6 63.8017 1098.25 63.3874C1097.97 63.3853 1097.71 63.4145 1097.47 63.4419L1097.47 63.442C1096.99 63.4962 1096.58 63.5432 1096.21 63.3292C1095.82 63.0991 1095.4 63.0766 1094.99 63.0542C1094.41 63.0226 1093.84 62.9912 1093.32 62.3717C1093.25 62.2801 1093.09 62.3467 1092.98 62.3696L1092.86 62.4128C1091.37 62.9801 1089.88 63.5472 1088.82 65.8124C1088.48 66.5658 1088.11 66.6761 1087.68 66.2848C1087.63 66.2475 1087.59 66.2112 1087.55 66.1752L1087.45 66.0921C1087.31 65.9797 1087.18 65.8663 1087.04 65.7332C1086.45 66.9155 1085.88 67.3922 1085.17 66.1995C1084.96 65.854 1084.58 65.7374 1084.27 65.7125C1083.72 65.6417 1083.18 65.5688 1082.72 64.8799C1082.59 64.6887 1082.4 64.6294 1082.21 64.5711C1082.16 64.5525 1082.1 64.5341 1082.04 64.5115C1081.12 64.1389 1080.21 64.2034 1079.25 64.3553C1078.48 64.4694 1077.7 64.3356 1076.93 64.2016C1075.78 64.0032 1074.62 63.8044 1073.47 64.4094C1073.44 64.4094 1073.39 64.3865 1073.36 64.3865C1072.6 64.1621 1071.89 64.5284 1071.18 64.8958C1070.71 65.1418 1070.23 65.3884 1069.74 65.4585C1069.12 65.5438 1068.49 65.8123 1067.92 66.2203C1066.88 66.9675 1065.88 67.8064 1064.89 68.7348C1064.64 68.9527 1064.46 69.3689 1064.27 69.7828C1064.2 69.9297 1064.14 70.0773 1064.07 70.2147C1063.75 70.8724 1062.55 70.9577 1062.28 70.1793L1061.96 70.3667C1061.5 70.6377 1061.04 70.909 1060.51 71.2409C1059.97 70.3229 1059.34 70.4561 1058.7 71.4323C1058.44 71.8351 1058.14 72.1608 1057.83 72.4836L1057.83 72.4863C1057.76 72.5663 1057.68 72.6462 1057.61 72.727C1057.5 72.8388 1057.4 72.953 1057.3 73.0672L1057.3 73.0682L1057.29 73.077C1056.17 74.3059 1055.06 75.5254 1053.73 73.6616C1053.62 73.5179 1053.47 73.4893 1053.31 73.4603C1053.21 73.4426 1053.12 73.4246 1053.03 73.3806C1052.77 73.2432 1052.4 73.2182 1052.28 72.8977C1051.84 71.7748 1051.24 71.8134 1050.6 71.8545L1050.56 71.8569L1050.51 71.8594C1049.58 71.9005 1048.6 71.9438 1047.78 71.041C1046.67 69.8278 1045.45 69.3328 1044.22 68.8327L1044.01 68.7475L1043.86 68.6848C1043.68 68.6134 1043.49 68.5721 1043.3 68.5307C1042.86 68.4368 1042.42 68.3427 1042.17 67.898C1041.68 67.0604 1041.11 66.5917 1040.54 66.1253C1040.23 65.8754 1039.93 65.6262 1039.64 65.3212C1039.27 64.934 1038.96 64.3845 1038.65 63.8308C1038.51 63.581 1038.39 63.3034 1038.27 63.0264C1038.1 62.6432 1037.93 62.2611 1037.73 61.9554C1035.62 58.9248 1033.16 57.8591 1030.5 58.0693C1029.88 58.1088 1029.35 58.0839 1029.04 57.2367C1028.92 57.3036 1028.81 57.3691 1028.69 57.4337L1028.45 57.5669C1027.83 57.9102 1027.25 58.2358 1026.68 58.6146C1026.23 58.931 1025.74 59.3598 1025.39 59.9758C1024.75 61.1124 1024 61.7472 1023.13 61.4454C1022.4 61.1894 1021.78 61.5245 1021.2 62.1614C1020.54 62.865 1019.92 63.6393 1019.34 64.526C1018.47 65.7957 1018.31 65.8664 1017.47 64.4448C1017.12 63.8704 1016.75 63.4353 1016.32 64.0265C1015.47 65.1379 1014.55 65.0859 1013.58 64.8756C1013.5 64.8582 1013.42 64.8383 1013.34 64.8182C1012.87 64.6991 1012.36 64.5682 1011.95 64.8424C1011.03 65.496 1010.23 65.2421 1009.46 64.3887C1008.92 63.8142 1008.43 63.4457 1007.78 63.6934C1007.53 63.8059 1007.08 63.5977 1006.96 63.2542C1006.32 61.5578 1005.46 61.5786 1004.52 61.9803C1004.36 62.0622 1004.2 62.1195 1004 62.1866C1003.93 62.2134 1003.84 62.2418 1003.76 62.2739C1003.42 60.9917 1002.78 60.667 1002.09 60.5254C1001.85 60.4797 1001.59 60.4314 1001.41 60.2007C1001.02 59.6741 1000.68 59.8801 1000.31 60.2173C1000.15 60.3717 999.976 60.4742 999.801 60.5755L999.801 60.5758C999.667 60.6533 999.534 60.7302 999.41 60.8293C998.604 61.5078 997.881 61.1623 997.35 60.0592C996.766 58.8685 996.083 58.4336 995.246 58.4023C994.974 58.4003 994.655 58.3979 994.423 58.1692C993.876 57.634 993.293 57.6492 992.71 57.6644C992.366 57.6734 992.021 57.6824 991.683 57.5781C991.463 57.4865 991.156 57.7821 990.931 58.009C989.357 59.6429 987.677 60.6815 985.857 60.7377C985.303 60.7335 984.97 60.9375 984.729 61.8471C984.553 62.4862 984.268 63.0315 983.994 63.556C983.807 63.8724 983.545 64.2179 983.313 64.2596C982.923 64.3421 982.529 64.3543 982.137 64.3665L982.136 64.3666L982.133 64.3667C981.893 64.3742 981.653 64.3817 981.414 64.4053C981.111 64.4511 980.774 64.5177 980.517 64.7675C979.649 65.6521 978.712 65.8498 977.831 65.2046C977.293 64.8133 976.851 64.7633 976.344 65.0131C976.294 65.0415 976.244 65.0731 976.192 65.1049C975.962 65.2481 975.72 65.3981 975.53 65.3045C974.992 65.0459 974.475 65.2239 973.958 65.402C973.639 65.512 973.32 65.622 972.996 65.6292C972.767 65.6453 972.536 66.0007 972.324 66.3286L972.322 66.3308C972.26 66.4272 972.199 66.5212 972.14 66.6034C971.731 67.1737 971.382 67.973 970.935 68.3331C969.983 69.1001 969.005 69.7521 968.029 70.4017L968.029 70.4021C967.853 70.5192 967.677 70.6362 967.502 70.7538C967.29 70.889 967.02 70.8412 966.8 70.7704C966.01 70.5373 965.238 70.3958 964.519 71.2804C964.397 71.4406 964.222 71.5052 964.064 71.5302C962.575 71.703 961.273 72.9269 960.035 74.3111C959.154 75.3331 958.267 75.8284 957.235 75.6619C956.975 75.6119 956.655 75.7035 956.431 75.9075C955.168 77.0857 953.918 77.0086 952.63 76.0865C952.385 75.9013 952.052 75.7868 951.832 75.9679C950.893 76.6922 950.058 76.1365 949.365 75.2206C948.779 74.4421 948.202 74.4588 947.562 74.4775L947.463 74.4812C946.99 74.4989 946.508 74.5168 946.025 74.5129C945.481 74.5337 945.028 74.7794 944.675 75.6453C943.84 77.7642 942.951 79.7894 941.482 80.6033C941.276 80.718 941.106 81.0363 940.94 81.3504C940.876 81.4693 940.813 81.5876 940.749 81.6941C940.55 82.0125 939.546 81.0696 939.32 80.3827C938.681 79.9683 938.019 79.957 937.36 79.9457C936.625 79.9332 935.894 79.9208 935.203 79.3503C935.033 79.2129 934.736 79.4377 934.528 79.573C933.55 80.2744 932.586 80.9301 931.521 80.466C931.417 80.4176 931.299 80.4487 931.184 80.4793C931.135 80.4922 931.087 80.5049 931.041 80.5117C930.424 80.5742 929.794 80.6616 929.179 80.749C928.947 80.7698 928.677 80.6532 928.465 80.8114C927.306 81.7398 926.114 81.3215 925.048 80.5825L925.038 80.575C924.111 79.9096 923.223 79.2719 922.225 79.4897C922.181 79.2734 922.142 79.0822 922.102 78.887C922.053 78.6443 922.004 78.3955 921.942 78.0843L921.931 78.0264C921.571 78.1136 921.217 78.2093 920.865 78.3043L920.856 78.307L920.849 78.3086C920.216 78.4798 919.591 78.6487 918.96 78.7633L918.902 78.7723C918.5 78.8351 917.964 78.9187 917.731 78.524C916.953 77.1832 915.986 76.7599 915.022 76.3383C914.554 76.1336 914.087 75.9292 913.643 75.6203C913.245 75.3317 912.806 75.2536 912.368 75.1758C912.212 75.1481 912.056 75.1203 911.902 75.0832C911.555 74.9916 911.19 74.9667 910.833 74.9625C910.51 74.9605 910.187 74.9693 909.863 74.9781L909.86 74.9782C909.518 74.9875 909.174 74.9969 908.828 74.9937C908.659 74.993 908.485 74.9655 908.312 74.938C907.953 74.881 907.595 74.8244 907.287 75.0083L907.241 75.036C905.9 75.8384 904.579 76.6296 903.147 76.2572C903.099 76.2425 903.052 76.2655 903.002 76.2899C902.974 76.3035 902.945 76.3177 902.915 76.3259C902.61 76.3981 902.306 76.475 902.001 76.5519L901.998 76.5527L901.996 76.553C901.364 76.7128 900.73 76.8728 900.092 76.992C899.914 77.0048 899.733 76.8799 899.554 76.7558L899.551 76.7539C899.47 76.6978 899.387 76.6412 899.307 76.5986C899.152 76.5115 898.998 76.4153 898.844 76.3194C898.588 76.1589 898.331 75.9984 898.071 75.8825L898.054 75.8757C897.446 75.6223 896.876 75.3848 896.395 74.4775C895.921 73.5846 895.198 73.0538 894.542 73.7781C893.267 75.1873 891.925 75.1104 890.55 74.6878C890.28 74.6191 889.987 74.4796 889.727 74.5691C889.121 74.7994 888.503 74.9096 887.886 75.0198C886.696 75.2323 885.504 75.4449 884.387 76.5195C883.845 77.0418 883.164 77.6081 882.443 77.0086C882.283 76.8733 881.901 77.2334 881.762 77.5519C881.005 79.4186 879.94 79.5453 878.876 79.672C878.655 79.6983 878.434 79.7247 878.216 79.7665C878.125 79.7835 878.032 79.7945 877.938 79.8056C877.677 79.8363 877.409 79.8676 877.182 80.033C876.7 80.3972 876.309 80.1412 875.829 79.9559L875.773 79.9362C874.868 79.6164 873.874 79.2653 873.027 79.6874C872.883 79.7625 872.738 79.8391 872.593 79.916L872.59 79.9172C871.994 80.2324 871.394 80.55 870.78 80.7656C870.595 80.8114 870.36 80.9696 870.261 81.2444C869.75 82.4517 869.098 82.3309 868.425 82.0062C867.797 81.7294 867.245 81.8626 866.771 82.7265C866.659 82.9138 866.509 83.0256 866.343 83.149C866.265 83.2067 866.184 83.2668 866.102 83.3383C865.708 81.873 865.07 81.3693 864.231 81.5212C864.091 81.544 863.947 81.4864 863.803 81.4288C863.672 81.3759 863.54 81.3229 863.411 81.3318C863.35 81.3385 863.288 81.344 863.225 81.3495L863.219 81.3502C862.853 81.3831 862.468 81.4177 862.139 81.669C860.708 82.7784 859.238 83.7276 857.684 84.0128C856.859 84.1668 856.083 84.504 855.306 84.9328C854.954 85.121 854.587 85.2356 854.221 85.35C853.801 85.4809 853.382 85.6117 852.988 85.8528C852.381 86.215 851.852 86.3253 851.251 85.9569C850.098 85.2179 849.016 85.576 847.961 86.7104C847.43 87.2995 846.86 87.5242 846.162 87.339C846 87.3001 845.836 87.256 845.671 87.2117L845.67 87.2115C844.641 86.9352 843.582 86.6506 842.569 87.5887C842.073 88.0405 841.591 88.4713 841.169 88.8563C840.579 88.7169 840.029 88.5545 839.489 88.413C839.172 88.3481 838.856 88.2841 838.539 88.2205L838.087 88.1299C837.129 87.9634 836.234 87.4555 835.343 86.8082C834.847 86.4651 834.308 86.3499 833.765 86.2337C833.435 86.163 833.103 86.0921 832.778 85.9693C832.283 85.7704 831.79 85.5193 831.299 85.2692C830.815 85.0227 830.331 84.7762 829.845 84.5789C829.534 84.4557 829.208 84.436 828.882 84.4164C828.658 84.4028 828.433 84.3892 828.212 84.3417C827.806 84.2553 827.404 84.4213 827.001 84.5874C826.406 84.8334 825.81 85.0793 825.198 84.5039C825.101 84.4103 824.876 84.5914 824.752 84.7517C823.907 85.8629 822.957 85.8831 822.005 85.9034L821.903 85.9056C821.549 85.9137 821.194 85.9271 820.845 86.0026C820.637 86.0484 820.369 85.8403 820.186 85.5864C819.623 84.8537 819.081 85.1014 818.5 85.5322L818.336 85.6514C817.326 86.3847 816.31 87.123 815.16 86.4439C814.805 86.2357 814.337 86.2815 813.98 86.5064C813.079 87.0413 812.175 87.0101 811.27 86.9789C811.069 86.9719 810.868 86.965 810.667 86.9642C810.357 86.9604 810.047 86.8715 809.734 86.7818C809.539 86.7257 809.343 86.6693 809.145 86.6333C808.799 86.5846 808.443 86.5666 808.016 86.545L808.004 86.5444L807.991 86.5438L807.989 86.5437C807.786 86.5333 807.567 86.5221 807.325 86.5064C807.286 86.575 807.175 86.7104 807.051 86.8248C806.197 87.6845 805.358 88.3651 804.342 87.5825C803.998 87.3286 803.637 87.1605 803.276 86.9924C802.914 86.8243 802.553 86.6562 802.209 86.4023C801.713 86.025 801.319 86.3855 800.928 86.7425L800.928 86.7429C800.653 86.9943 800.379 87.2439 800.074 87.2327C800.042 87.2172 800.014 87.2227 799.988 87.2279C799.976 87.2303 799.964 87.2327 799.951 87.2327C799.426 86.9803 798.884 86.9402 798.341 86.8999C797.54 86.8407 796.737 86.7812 795.986 86.0422C795.646 85.7196 795.116 85.578 794.734 85.7591C793.724 86.2774 792.854 85.7487 791.973 84.9869C790.681 83.8761 789.284 83.6829 787.903 83.4918C787.597 83.4495 787.292 83.4072 786.988 83.3551C786.24 83.2364 785.501 83.2343 784.778 82.8139C784.485 82.6307 784.145 82.3309 783.873 82.4433C782.944 82.8472 782.311 82.0457 781.779 80.9697C781.403 80.2328 781.095 80.2557 780.624 80.6199C779.76 81.2736 778.885 81.3381 777.967 80.645C777.307 80.1392 776.57 79.9289 776.156 80.953L773.834 80.9384C773.263 79.7479 772.555 78.8069 771.668 79.0505C770.314 79.4064 768.984 79.5813 767.657 79.0005C767.575 78.9759 767.484 79.0077 767.391 79.04C767.32 79.0649 767.249 79.0901 767.179 79.0901C766.831 79.0874 766.481 79.1098 766.131 79.1322C765.371 79.1809 764.612 79.2295 763.872 79.0214C763.256 78.8399 762.646 78.605 762.034 78.37C760.683 77.8505 759.33 77.3303 757.915 77.3833C757.703 77.3923 757.488 77.2691 757.273 77.1464C757.043 77.0147 756.814 76.8836 756.59 76.917C756.24 76.9716 755.89 76.9981 755.539 77.0246C754.62 77.0941 753.703 77.1635 752.81 77.7392C752.068 78.2096 751.304 78.6405 750.525 78.7487C749.025 78.9902 747.667 79.8727 746.412 81.1882C745.324 80.6325 744.281 80.0788 743.461 79.6396C743.006 79.7898 742.568 79.9309 742.142 80.0682C741.239 80.3589 740.39 80.6325 739.554 80.9364C739.421 80.9821 739.289 81.0259 739.157 81.0696L739.156 81.0697C738.13 81.409 737.121 81.7428 736.23 82.9929C735.819 83.5361 735.069 83.7838 734.554 83.5757C733.732 83.2281 733.25 83.6547 732.874 84.8661C732.633 85.6405 732.276 85.8653 731.796 86.0006C731.159 86.1865 730.513 86.2048 729.867 86.2231L729.866 86.2231C728.972 86.2483 728.076 86.2736 727.201 86.7436C726.694 87.0163 726.154 87.1724 725.563 87.3972C724.649 86.2482 723.037 86.1692 722.007 87.4181C721.238 88.3922 720.349 88.7752 719.489 88.9749C718.41 89.2268 717.322 89.381 716.236 89.5351C715.5 89.6395 714.764 89.7438 714.033 89.8783L714.005 89.8825C713.291 89.9892 712.634 90.0875 711.93 89.5203C711.492 89.1956 710.9 89.2143 710.408 89.3726C709.114 89.7971 707.859 89.6286 706.536 89.1644C706.647 87.4374 706.064 87.0213 705.501 86.6187C705.237 86.4308 704.978 86.2458 704.796 85.9318C704.572 86.0713 704.359 86.2277 704.153 86.3791L704.152 86.3794C703.725 86.6934 703.327 86.9856 702.918 87.0601C701.578 87.3015 700.199 87.4555 698.926 86.5771C697.725 85.7487 696.585 85.168 695.266 85.8674C694.618 86.2132 693.934 86.3253 693.25 86.4372L693.248 86.4374C692.862 86.5005 692.477 86.5636 692.098 86.6687C691.873 86.7275 691.655 86.8664 691.417 87.0178L691.416 87.0183C691.293 87.0969 691.163 87.1791 691.025 87.2557L690.976 86.9908C690.876 86.4379 690.786 85.9419 690.692 85.4489C690.621 85.426 690.551 85.4106 690.483 85.3955C690.34 85.3639 690.203 85.3338 690.08 85.2408C689.988 85.178 689.897 85.1107 689.806 85.0436C689.129 84.5438 688.467 84.0553 687.839 85.5197C687.776 85.6821 687.531 85.6113 687.381 85.6571C687.275 85.6922 687.168 85.7227 687.061 85.7522L686.961 85.7793L686.96 85.7796C686.63 85.8693 686.301 85.9587 685.99 86.1483C685.951 86.1703 685.914 86.1926 685.876 86.2149L685.855 86.2269L685.841 86.2356C685.273 86.5706 684.771 86.8673 684.27 85.7487C684.137 85.4567 683.765 85.4917 683.444 85.5222C683.386 85.5277 683.329 85.5331 683.275 85.5363C683.066 85.5516 682.857 85.5741 682.648 85.5966C681.43 85.7279 680.226 85.8577 679.113 84.5269C678.795 84.1605 678.354 84.0419 677.96 84.0169C677.075 83.942 676.227 83.7089 675.447 82.8804C675.384 82.8101 675.298 82.7518 675.215 82.7233C675.135 82.6963 675.057 82.6963 675.002 82.7389C674.34 83.2513 673.64 83.196 672.94 83.1407C672.152 83.0784 671.364 83.0161 670.63 83.7609C670.579 83.815 670.507 83.7971 670.431 83.7782C670.378 83.7651 670.323 83.7515 670.273 83.7609C670.038 83.7908 669.799 83.8068 669.559 83.8228C668.934 83.8645 668.302 83.9067 667.714 84.2001C667.009 84.5373 666.457 84.4873 665.769 84.1418C664.654 83.5861 663.451 83.0511 662.371 84.6185C661.962 85.2096 661.522 85.1409 661.017 84.9286C660.502 84.7433 659.812 84.6018 659.416 85.0785C658.283 86.4093 657.378 85.5042 656.476 84.6009L656.469 84.5945C656.387 84.5124 656.305 84.4303 656.223 84.35C655.77 83.899 655.342 83.3482 654.897 82.7752L654.896 82.774C654.705 82.5278 654.511 82.2774 654.31 82.0291C654.293 80.4555 654.21 80.2953 653.215 80.1496C652.898 80.1008 652.576 80.08 652.255 80.0592C651.013 79.9787 649.774 79.8984 648.748 78.2013C648.715 78.1359 648.656 78.1288 648.597 78.1218C648.574 78.119 648.551 78.1162 648.53 78.1097C648.31 78.0629 648.09 78.0286 647.87 77.9944C647.427 77.9252 646.986 77.8564 646.552 77.6851C645.507 77.2667 644.467 76.8025 643.451 76.1823C642.566 75.6494 641.658 75.3913 640.751 75.204C640.228 75.1027 639.694 75.1208 639.164 75.1388L639.163 75.1388C638.821 75.1504 638.48 75.1619 638.144 75.1415C637.713 75.1229 637.276 75.0855 636.836 75.048L636.835 75.0479L636.832 75.0477L636.814 75.0461C636.573 75.0255 636.331 75.0049 636.09 74.9875L636.092 74.9042C636.077 74.9066 636.062 74.9092 636.047 74.912L636.008 74.9197C635.943 74.9325 635.878 74.9453 635.812 74.9438C633.66 74.8834 631.508 74.7773 629.63 72.4357C629.335 72.0737 629.003 71.7752 628.671 71.4771L628.67 71.4766C628.14 71 627.61 70.5244 627.237 69.7921C626.668 68.6672 625.942 68.1534 625.234 67.6525L625.232 67.6509L625.231 67.6502C624.974 67.4687 624.72 67.2888 624.477 67.082C623.191 65.9996 621.694 65.5334 620.258 65.1546C618.365 64.6785 616.462 64.3816 614.557 64.0843L614.536 64.081L614.519 64.0783C614.188 64.0267 613.857 63.9751 613.526 63.9224C612.812 63.8287 612.074 63.8017 611.385 64.0452C610.251 64.4511 609.115 64.9693 608.041 65.6916C606.94 66.416 605.868 66.6116 604.819 65.7374C604.787 65.7112 604.754 65.685 604.721 65.6588L604.616 65.5751C603.984 65.0736 603.312 64.5405 602.84 63.7143C602.036 62.2489 601.29 61.512 600.21 62.9212C599.591 61.4427 598.765 61.5702 597.962 61.6941C597.88 61.7067 597.799 61.7192 597.718 61.73L597.649 61.7389C597.424 61.7708 597.195 61.7916 596.963 61.8125C596.091 61.8914 595.198 61.9722 594.484 62.6548C593.637 63.4857 592.927 63.1506 592.213 62.8134C591.913 62.6718 591.612 62.5297 591.299 62.4737C591.26 62.4737 591.225 62.4737 591.187 62.4945C590.558 62.9638 589.9 63.0661 589.241 63.1683C588.915 63.2189 588.589 63.2695 588.267 63.3646C587.255 63.656 586.875 63.3791 586.319 61.7785C586.258 61.5969 586.198 61.3959 586.137 61.1909C585.937 60.5145 585.724 59.7961 585.413 59.6012C585.249 59.4948 585.086 59.3834 584.922 59.2717L584.915 59.2667C583.98 58.6283 583.034 57.9824 581.965 58.2087C581.348 58.3419 580.7 58.1775 580.071 58.0588C579.877 58.0258 579.685 57.9272 579.495 57.8292C579.265 57.711 579.037 57.5937 578.808 57.5926C577.503 57.653 576.212 57.7821 574.907 58.0006C574.417 58.0901 573.92 58.4502 573.449 58.8145L573.313 58.9227C572.559 59.5217 571.826 60.1046 570.957 60.0987C570.242 60.0925 569.467 60.157 568.85 60.6565C567.265 61.97 565.643 62.0241 564.086 61.1249C562.695 60.3564 561.34 60.6066 559.98 60.8577L559.979 60.8578C559.542 60.9386 559.104 61.0195 558.664 61.0666C558.592 61.0768 558.52 61.1405 558.451 61.2224C558.364 61.3247 558.281 61.4552 558.203 61.5453C557.206 59.8239 557.061 59.7074 555.873 60.9563C555.104 61.7493 554.263 62.2697 553.49 62.0136C552.682 61.7327 552.026 62.2072 551.48 62.8462C549.461 65.1837 547.245 65.0298 545.109 64.4927C543.404 64.0452 542.093 64.9527 540.88 66.2682C540.452 66.0351 540.12 65.7603 539.765 65.7125C539.567 65.6818 539.36 65.7239 539.153 65.7661L539.152 65.7663C538.882 65.8215 538.611 65.8767 538.361 65.7707C537 65.1441 535.704 65.5023 534.383 66.2453C533.93 66.4951 533.376 66.5159 532.883 66.3952C532.297 66.2384 531.712 65.9876 531.138 65.7413L531.13 65.7379C530.853 65.6191 530.579 65.5014 530.308 65.3961C529.255 68.4496 528.623 68.972 527.103 68.0916C526.627 69.507 525.863 69.865 524.976 69.8587C524.226 69.8796 523.464 69.942 522.724 70.1169C522.218 70.2313 521.725 70.5456 521.231 70.8162C521.054 70.8973 520.882 71.0379 520.771 71.1279L520.768 71.1307C520.727 71.1641 520.695 71.1904 520.674 71.2034C520.524 70.9337 520.392 70.6476 520.269 70.3796C520.013 69.8244 519.792 69.3465 519.519 69.251C519.25 69.1531 518.926 69.4821 518.659 69.7531L518.658 69.7543C518.55 69.8632 518.452 69.9627 518.371 70.0211C518.149 69.8528 517.939 69.6592 517.736 69.4718L517.734 69.4694C517.298 69.0671 516.893 68.6938 516.475 68.6598C515.012 68.539 513.521 68.5266 512.092 68.9513C511.751 69.0536 511.434 69.0008 511.124 68.9491L511.123 68.9491C510.827 68.8998 510.537 68.8514 510.237 68.9387C509.63 69.0927 509.04 69.2489 508.436 69.3633C508.299 69.3793 508.157 69.3616 508.015 69.3439L508.014 69.3438C507.786 69.3155 507.559 69.2872 507.354 69.3988C506.415 69.8962 505.59 69.9816 504.573 69.3571C503.736 68.8538 502.803 68.833 501.868 68.8121C501.519 68.8044 501.17 68.7966 500.826 68.7639C500.605 68.7598 500.333 68.9179 500.159 69.1677C499.513 70.0752 498.838 69.9816 498.115 69.7047C497.378 69.4237 496.701 69.5799 496.165 70.7621C495.978 71.1722 495.641 71.5801 495.371 71.603C494.938 71.6275 494.5 71.5721 494.063 71.5168C493.756 71.478 493.45 71.4393 493.146 71.4282C492.557 71.3991 491.952 71.4636 491.375 71.553C491.16 71.5851 490.945 71.6311 490.73 71.677C489.773 71.8812 488.818 72.085 487.921 71.0723C487.372 70.4541 486.851 70.837 486.543 71.3366C486.315 71.1917 486.096 71.0501 485.885 70.9132C485.326 70.5505 484.817 70.2208 484.3 69.9503C483.848 69.7301 483.391 69.5841 482.933 69.4379L482.932 69.4375C482.767 69.3849 482.602 69.3321 482.437 69.2759C482.213 69.2057 481.989 69.1222 481.765 69.0387L481.764 69.0383C481.324 68.8745 480.885 68.7108 480.445 68.6473C480.31 68.6264 480.17 68.6001 480.03 68.5734C479.358 68.4461 478.647 68.3113 478.084 68.7243C476.962 69.5382 475.917 69.3238 474.81 69.0428C474.43 68.9491 474.002 68.9013 473.655 69.149C472.652 69.8754 471.869 69.5257 471.227 68.0166C470.899 67.2589 470.473 66.7761 469.894 66.7948L466.167 66.7698C465.357 64.5718 465.174 64.4802 463.741 65.4294C463.444 65.6334 463.172 65.9289 462.863 66.1329C462.653 66.2682 462.406 66.3785 462.173 66.3785C461.704 66.4163 461.231 66.4297 460.756 66.4432L460.755 66.4432L460.751 66.4433C460.442 66.452 460.132 66.4608 459.822 66.4764C459.748 66.4836 459.664 66.511 459.578 66.5386C459.393 66.5982 459.204 66.659 459.122 66.518C458.651 65.6437 458.074 65.6177 457.498 65.5917C457.213 65.5788 456.928 65.566 456.656 65.4502C456.147 65.2358 455.693 65.4406 455.231 65.6489C455.092 65.7117 454.952 65.7749 454.81 65.8269C453.735 66.1946 452.637 66.3474 451.549 66.4986L451.545 66.4992L451.541 66.4997C451.308 66.5322 451.075 66.5646 450.842 66.5991C450.633 66.62 450.415 66.2079 450.182 66.1371C449.9 66.0502 449.613 65.9824 449.325 65.934C449.075 65.8919 448.823 65.8645 448.572 65.8519C448.468 65.8416 448.355 65.8996 448.245 65.9566L448.244 65.9569C448.109 66.0268 447.977 66.0949 447.868 66.033C447.075 65.5251 446.396 65.9081 445.737 66.7927C445.438 66.4597 445.148 66.1329 444.889 65.8373C444.63 65.5418 444.401 65.2774 444.225 65.0693C443.947 65.0672 443.688 65.0968 443.446 65.1245L443.445 65.1245L443.444 65.1246C442.968 65.179 442.556 65.2261 442.181 65.011C441.79 64.7806 441.379 64.7584 440.968 64.7362C440.389 64.7049 439.811 64.6736 439.298 64.0556C439.225 63.9641 439.065 64.0306 438.953 64.0535L438.842 64.0957C437.35 64.6634 435.857 65.2316 434.797 67.4983C434.458 68.2477 434.091 68.36 433.65 67.9687C433.564 67.8919 433.478 67.8194 433.391 67.7461C433.268 67.6424 433.143 67.537 433.013 67.4151C432.429 68.5994 431.858 69.074 431.141 67.8834C430.936 67.54 430.554 67.4234 430.246 67.3984C429.696 67.3256 429.153 67.2527 428.69 66.5658C428.522 66.312 428.25 66.2869 428.017 66.1954C427.097 65.8248 426.187 65.8852 425.226 66.0413C424.452 66.1554 423.677 66.0209 422.901 65.886L422.9 65.8859C421.751 65.6864 420.6 65.4864 419.443 66.0913C419.437 66.0913 419.43 66.0898 419.421 66.0876L419.401 66.0819C419.379 66.0756 419.354 66.0684 419.333 66.0684C418.577 65.8441 417.87 66.2098 417.159 66.577L417.159 66.5771C416.683 66.8233 416.205 67.0702 415.711 67.1404C415.096 67.2257 414.466 67.4983 413.899 67.9022C412.861 68.6494 411.858 69.4883 410.867 70.4166C410.534 70.7122 410.306 71.3741 410.046 71.8965C409.722 72.5563 408.528 72.6396 408.25 71.8611L408.187 71.8984C407.64 72.2221 407.114 72.5337 406.484 72.9226C405.948 72.0068 405.321 72.1401 404.673 73.1184C404.416 73.5201 404.108 73.8489 403.803 74.174L403.802 74.1749C403.728 74.2533 403.655 74.3317 403.583 74.4109C403.531 74.4667 403.479 74.5231 403.427 74.5798L403.268 74.7548C402.152 75.9841 401.039 77.21 399.702 75.3434C399.597 75.1984 399.441 75.1706 399.281 75.1423C399.187 75.1255 399.091 75.1085 399.005 75.0665C398.931 75.0268 398.849 74.9963 398.765 74.9655C398.557 74.8887 398.345 74.8101 398.257 74.5796C397.817 73.4602 397.218 73.4992 396.583 73.5403L396.543 73.543L396.478 73.5456C395.55 73.5828 394.58 73.6217 393.756 72.7229C392.645 71.5116 391.428 71.0162 390.201 70.5169C390.079 70.4671 389.957 70.4172 389.834 70.3666C389.66 70.2972 389.47 70.2566 389.279 70.216C388.84 70.1227 388.398 70.0287 388.144 69.5819C387.658 68.7437 387.082 68.2734 386.51 67.806L386.51 67.8057C386.205 67.5571 385.902 67.3092 385.614 67.0071C385.248 66.6158 384.932 66.0663 384.629 65.5168C384.487 65.2599 384.361 64.9737 384.237 64.6891L384.236 64.687C384.07 64.3105 383.907 63.9368 383.707 63.6372C381.599 60.6087 379.133 59.5409 376.474 59.7511C375.86 59.7927 375.332 59.7656 375.016 58.9185C374.818 59.0308 374.623 59.1393 374.43 59.2461L374.43 59.2466C373.81 59.5907 373.223 59.9169 372.659 60.2965C372.202 60.615 371.72 61.0458 371.371 61.6577C370.723 62.7963 369.981 63.4291 369.109 63.1272C368.374 62.8712 367.755 63.2105 367.173 63.8453C366.517 64.5468 365.896 65.319 365.314 66.2079C364.444 67.4817 364.284 67.5483 363.443 66.1267C363.09 65.5522 362.724 65.1171 362.29 65.7082C361.449 66.8198 360.527 66.7678 359.554 66.5576C359.473 66.5396 359.389 66.519 359.304 66.4979C358.836 66.3822 358.327 66.2565 357.93 66.5242C357.004 67.1778 356.206 66.9239 355.436 66.0704C354.898 65.496 354.411 65.1297 353.757 65.3753C353.508 65.4919 353.057 65.2795 352.935 64.9361C352.295 63.2438 351.433 63.2604 350.494 63.6642C350.333 63.7481 350.163 63.8063 349.962 63.8748L349.847 63.9144L349.776 63.9392L349.73 63.9557C349.395 62.6735 348.758 62.3529 348.072 62.2114L348.064 62.2099C347.82 62.1625 347.565 62.1132 347.383 61.8866C346.994 61.358 346.66 61.562 346.288 61.9034C346.004 62.174 345.671 62.2864 345.389 62.5111C344.583 63.1897 343.86 62.8442 343.324 61.7451C342.742 60.5546 342.057 60.1133 341.22 60.0841C340.952 60.0841 340.63 60.0821 340.397 59.851C339.853 59.3168 339.269 59.3328 338.685 59.3487C338.34 59.3582 337.995 59.3676 337.658 59.2641C337.44 59.1725 337.13 59.466 336.906 59.6929C335.331 61.3247 333.653 62.3654 331.833 62.4217C331.281 62.4154 330.945 62.6194 330.704 63.5311C330.529 64.1701 330.242 64.7175 329.968 65.2378C329.781 65.5584 329.522 65.8998 329.289 65.9435C328.907 66.0232 328.52 66.036 328.135 66.0487C327.887 66.0569 327.638 66.0652 327.393 66.0913C327.085 66.1329 326.753 66.1995 326.491 66.4493C325.625 67.3339 324.688 67.5337 323.808 66.8864C323.268 66.4951 322.827 66.4492 322.32 66.6949C322.274 66.722 322.227 66.7518 322.179 66.782C321.946 66.9279 321.699 67.0829 321.506 66.9863C320.97 66.7294 320.454 66.907 319.937 67.0844L319.937 67.0846C319.617 67.1946 319.297 67.3047 318.972 67.311C318.746 67.3287 318.516 67.6818 318.304 68.0097C318.24 68.1085 318.177 68.205 318.117 68.2893C317.971 68.4913 317.832 68.7228 317.694 68.9536L317.694 68.9546C317.445 69.3704 317.199 69.7834 316.912 70.0148C315.931 70.8058 314.922 71.4751 313.919 72.141L313.476 72.4357C313.269 72.5709 312.996 72.5231 312.774 72.4544C311.989 72.2213 311.216 72.0797 310.496 72.9622C310.371 73.1225 310.199 73.1891 310.039 73.212C308.549 73.3848 307.249 74.6087 306.009 75.9928C305.131 77.0149 304.242 77.5103 303.209 77.3438C302.952 77.2979 302.63 77.3853 302.41 77.5915C301.147 78.7716 299.892 78.6925 298.606 77.7726C298.363 77.5852 298.031 77.4686 297.809 77.6497C296.87 78.3761 296.037 77.8225 295.341 76.9024C294.759 76.1257 294.181 76.1426 293.543 76.1612L293.538 76.1614C293.276 76.1722 293.01 76.182 292.743 76.1882C292.496 76.194 292.247 76.1968 291.999 76.1948C291.459 76.2156 291.002 76.4653 290.653 77.3312C289.814 79.446 288.927 81.4734 287.457 82.2851C287.252 82.3999 287.083 82.7183 286.916 83.033L286.912 83.0404L286.91 83.0435C286.849 83.1592 286.788 83.2741 286.725 83.3779C286.526 83.6943 285.523 82.7535 285.297 82.0645C284.659 81.6501 283.996 81.6388 283.337 81.6275C282.602 81.615 281.871 81.6025 281.182 81.032C281.028 80.9094 280.775 81.077 280.573 81.2105L280.573 81.2108L280.502 81.2569C279.528 81.9604 278.56 82.614 277.495 82.1519C277.391 82.102 277.275 82.1319 277.16 82.1618L277.159 82.1619C277.111 82.1744 277.063 82.1868 277.015 82.1936C276.4 82.256 275.773 82.3434 275.158 82.4309C275.078 82.4386 274.995 82.4305 274.912 82.4223C274.748 82.4064 274.583 82.3904 274.444 82.4953C273.28 83.4216 272.088 83.0054 271.025 82.2685L271.019 82.2644C270.091 81.5957 269.199 80.9535 268.204 81.1736C268.106 80.7074 268.036 80.358 267.931 79.8347L267.907 79.7125C266.895 79.956 265.921 80.2702 264.935 80.4451L264.899 80.4511L264.898 80.4512C264.497 80.5179 263.945 80.6096 263.709 80.2078C262.933 78.8672 261.966 78.4438 261.003 78.0226L261.003 78.0225C260.534 77.8172 260.066 77.6124 259.622 77.3021C259.224 77.0138 258.785 76.9368 258.346 76.8596L258.346 76.8596C258.189 76.832 258.032 76.8045 257.877 76.7672C257.532 76.6735 257.164 76.6485 256.807 76.6443C256.484 76.6433 256.16 76.6521 255.836 76.6611C255.493 76.6704 255.149 76.6798 254.803 76.6777C254.636 76.6764 254.465 76.6488 254.294 76.6213L254.293 76.6212C253.934 76.5633 253.575 76.5055 253.266 76.6901L253.204 76.727C251.865 77.5264 250.552 78.3101 249.122 77.9411C249.049 77.9182 248.975 77.9848 248.889 78.0077C248.701 78.0526 248.512 78.0994 248.323 78.1468L247.987 78.2318C247.35 78.3932 246.712 78.5551 246.066 78.6738C245.889 78.6866 245.708 78.561 245.528 78.4366L245.527 78.4363C245.445 78.3797 245.364 78.3233 245.283 78.2804C245.125 78.1925 244.969 78.0947 244.813 77.997C244.558 77.8379 244.304 77.6791 244.046 77.5644L244.027 77.5567C243.421 77.3036 242.852 77.066 242.369 76.1594C241.896 75.2664 241.173 74.7356 240.521 75.462C239.243 76.8692 237.904 76.7921 236.526 76.3696C236.464 76.3539 236.401 76.3345 236.337 76.3149L236.337 76.3149C236.123 76.2491 235.904 76.1819 235.704 76.251C235.098 76.4809 234.482 76.5911 233.865 76.7013L233.865 76.7013L233.865 76.7013C232.673 76.9142 231.48 77.1273 230.364 78.2054C229.819 78.7237 229.14 79.2899 228.417 78.6925C228.26 78.5551 227.875 78.9173 227.738 79.2378C226.981 81.1037 225.916 81.2294 224.852 81.355C224.632 81.381 224.412 81.407 224.195 81.4484C223.848 81.515 223.466 81.4901 223.158 81.719C222.741 82.031 222.392 81.8836 221.994 81.7154L221.981 81.7098C221.923 81.6857 221.866 81.6613 221.806 81.6378L221.752 81.6187C220.844 81.2989 219.851 80.9489 219.004 81.3693C218.847 81.4506 218.69 81.5339 218.532 81.6173L218.53 81.6184L218.528 81.6196L218.528 81.6198C217.944 81.9287 217.359 82.2391 216.755 82.4517C216.572 82.4933 216.337 82.6535 216.237 82.9262C215.724 84.1335 215.074 84.0128 214.399 83.6923C213.776 83.4133 213.221 83.5444 212.748 84.4103C212.637 84.5954 212.49 84.7059 212.327 84.8283C212.248 84.8876 212.165 84.9497 212.081 85.0243C211.682 83.559 211.045 83.0511 210.208 83.2051C210.068 83.229 209.924 83.1715 209.781 83.114C209.648 83.061 209.515 83.0079 209.385 83.0178C208.967 83.0615 208.5 83.0553 208.118 83.3529C206.683 84.4603 205.212 85.4094 203.661 85.6946C202.836 85.8507 202.057 86.1899 201.282 86.6167C200.929 86.8069 200.56 86.9217 200.192 87.0363L200.19 87.0368L200.189 87.037C199.772 87.1666 199.356 87.2961 198.962 87.5346C198.358 87.8989 197.828 88.0092 197.228 87.6387C196.075 86.9018 194.993 87.2599 193.938 88.3921C193.406 88.9833 192.839 89.2081 192.137 89.0229C191.977 88.9844 191.816 88.9408 191.653 88.8969L191.653 88.8968C190.624 88.6184 189.56 88.3303 188.546 89.2705C188.05 89.7243 187.568 90.1552 187.147 90.5403C186.764 90.4482 186.395 90.3473 186.036 90.249L186.032 90.2477L186.012 90.2424C185.828 90.192 185.646 90.1422 185.466 90.0948C185.169 90.0368 184.873 89.9763 184.577 89.9159C184.406 89.881 184.235 89.8461 184.065 89.8118C183.106 89.6452 182.212 89.1373 181.317 88.4921C180.825 88.1494 180.289 88.0348 179.748 87.9192C179.415 87.848 179.08 87.7765 178.753 87.6512C178.258 87.4525 177.765 87.2014 177.273 86.9501C176.791 86.7038 176.308 86.4576 175.823 86.2607C175.512 86.1384 175.188 86.1189 174.865 86.0995L174.864 86.0995C174.638 86.0859 174.411 86.0723 174.189 86.0235C173.784 85.9381 173.383 86.1037 172.982 86.2696L172.981 86.2697L172.981 86.2698C172.385 86.5164 171.787 86.7633 171.173 86.1859C171.119 86.1343 171.028 86.1666 170.937 86.2325C170.861 86.2863 170.786 86.3624 170.73 86.4335C169.886 87.5446 168.937 87.5658 167.987 87.5871H167.987C167.596 87.5958 167.206 87.6045 166.822 87.6887C166.614 87.7324 166.343 87.5242 166.16 87.2723C165.601 86.5355 165.055 86.7832 164.476 87.2161L164.302 87.3425C163.296 88.0719 162.283 88.8068 161.136 88.1299C160.782 87.9218 160.314 87.9634 159.957 88.1882C159.05 88.7271 158.138 88.6943 157.227 88.6615L157.225 88.6615C157.031 88.6545 156.838 88.6476 156.644 88.6462C156.334 88.6436 156.023 88.5542 155.711 88.464L155.71 88.4639L155.709 88.4636C155.514 88.4074 155.319 88.351 155.121 88.3152C154.861 88.2784 154.593 88.2596 154.294 88.2437C154.001 88.228 153.678 88.215 153.302 88.1903C153.263 88.2569 153.152 88.3921 153.028 88.5066C152.174 89.3704 151.333 90.0491 150.316 89.2643C149.973 89.0107 149.611 88.8423 149.248 88.674C148.888 88.5067 148.527 88.3394 148.186 88.0883C147.69 87.7083 147.295 88.0699 146.904 88.4275L146.903 88.428C146.628 88.6794 146.355 88.9288 146.051 88.9167C146.004 88.896 145.965 88.9167 145.929 88.9146C145.405 88.6623 144.862 88.6224 144.318 88.5825L144.318 88.5825C143.516 88.5236 142.713 88.4646 141.963 87.7241C141.623 87.4056 141.094 87.2641 140.712 87.443C139.698 87.9634 138.828 87.4305 137.948 86.6687C136.658 85.5576 135.262 85.3645 133.88 85.1734C133.574 85.1311 133.269 85.0889 132.966 85.0368C132.218 84.9182 131.478 84.9162 130.755 84.4998C130.462 84.3125 130.118 84.0169 129.847 84.1272C128.922 84.5331 128.288 83.7277 127.753 82.6535C127.379 81.9188 127.069 81.9396 126.601 82.3018C125.735 82.9596 124.862 83.0199 123.943 82.3289C123.283 81.821 122.547 81.6129 122.131 82.6369L119.811 82.6202C119.24 81.4296 118.531 80.4889 117.645 80.7324C116.291 81.0904 114.961 81.2652 113.635 80.6866C113.551 80.6593 113.459 80.6913 113.365 80.7237C113.295 80.7482 113.224 80.7728 113.156 80.7719C112.805 80.7692 112.454 80.7918 112.102 80.8143L112.102 80.8143C111.342 80.863 110.584 80.9116 109.846 80.7053C109.236 80.5245 108.63 80.2913 108.023 80.0577L108.023 80.0575L108.019 80.056L108.019 80.0559C106.666 79.5348 105.31 79.0126 103.892 79.0672C103.678 79.0752 103.463 78.9519 103.249 78.8294L103.249 78.829L103.248 78.8289C103.018 78.6971 102.79 78.5664 102.568 78.6009C102.218 78.6555 101.867 78.6822 101.516 78.7088L101.516 78.7088C100.596 78.7787 99.6788 78.8485 98.7848 79.4211C98.0455 79.8956 97.2784 80.3244 96.503 80.4326C95.0018 80.6741 93.642 81.5546 92.3903 82.87C91.299 82.3143 90.2578 81.7606 89.438 81.3214C88.938 81.488 88.4579 81.6428 87.9918 81.793C87.1363 82.0687 86.3282 82.3292 85.5304 82.6202C85.4006 82.6651 85.2709 82.7082 85.1414 82.7511L85.1366 82.7527C84.1096 83.0926 83.0985 83.4273 82.207 84.6768C81.7972 85.22 81.0464 85.4656 80.5315 85.2574C79.7088 84.9099 79.2269 85.3408 78.8504 86.548C78.6096 87.3224 78.2523 87.5492 77.7705 87.6824C77.1343 87.8703 76.4882 87.8886 75.8413 87.907L75.8407 87.907C74.9474 87.9323 74.0525 87.9577 73.1785 88.4297C72.8206 88.6194 72.4446 88.753 72.0467 88.8943L72.046 88.8946C71.8807 88.9532 71.7119 89.0132 71.539 89.0791C70.6223 87.9301 69.0132 87.851 67.983 89.0999C67.213 90.0782 66.3271 90.4612 65.4631 90.661C64.3829 90.9116 63.2951 91.0654 62.2094 91.2188L62.2073 91.2191C61.4728 91.323 60.7391 91.4267 60.0098 91.5602L59.9741 91.5655C59.26 91.6719 58.6052 91.7693 57.9077 91.2022C57.4674 90.8795 56.8749 90.8982 56.3846 91.0543C55.0885 91.4811 53.8365 91.3125 52.5103 90.8462C52.6215 89.1193 52.039 88.7031 51.4764 88.3013C51.2136 88.1137 50.9553 87.9291 50.7739 87.6158C50.5454 87.7566 50.3289 87.9153 50.1197 88.0686C49.6952 88.38 49.3005 88.6693 48.8962 88.7418C47.553 88.9875 46.1764 89.1373 44.9025 88.2631C43.7033 87.4305 42.5622 86.8519 41.2413 87.5513C40.5921 87.8989 39.9028 88.0112 39.2152 88.1232L39.2126 88.1236C38.8308 88.1859 38.4493 88.2481 38.0756 88.3506C37.7295 88.4422 37.4083 88.7127 37.0013 88.9396C36.8822 88.2735 36.7769 87.7053 36.6689 87.1328C36.5961 87.1089 36.5247 87.0928 36.4551 87.0772L36.4549 87.0771C36.3135 87.0452 36.1782 87.0146 36.054 86.9227C35.9638 86.8607 35.874 86.7943 35.7845 86.7281C35.1081 86.2277 34.4445 85.737 33.8134 87.2057C33.7731 87.3104 33.6515 87.3148 33.5313 87.3191H33.5311C33.4697 87.3213 33.4088 87.3235 33.3594 87.339C32.8886 87.4929 32.4094 87.5596 31.9664 87.8322L31.9053 87.8676L31.816 87.9199C31.2479 88.2544 30.7481 88.5487 30.2464 87.4327C30.0887 87.0892 29.5957 87.1995 29.2522 87.2183C29.0436 87.2338 28.835 87.2565 28.627 87.2793L28.6268 87.2793C27.4086 87.4122 26.2033 87.5437 25.0872 86.2087C24.7712 85.8424 24.3309 85.7258 23.935 85.7008C23.0514 85.6259 22.2041 85.3907 21.423 84.5623C21.2983 84.427 21.0906 84.3333 20.98 84.4249C20.317 84.935 19.6172 84.8796 18.9174 84.8242H18.9173C18.1294 84.7619 17.3418 84.6996 16.6069 85.4448C16.5563 85.499 16.4832 85.4803 16.4069 85.4608L16.4068 85.4608C16.3539 85.4473 16.2994 85.4334 16.2497 85.4427C16.0146 85.4727 15.776 85.4886 15.5365 85.5046L15.5352 85.5047C14.9088 85.5464 14.2766 85.5885 13.6879 85.8819C12.9846 86.2191 12.4334 86.1692 11.7464 85.8236C10.6305 85.2678 9.42836 84.7351 8.34847 86.3024C7.93858 86.8935 7.49562 86.8227 6.99415 86.6146C6.4763 86.4272 5.78934 86.2858 5.39349 86.7645C4.2586 88.0915 3.35542 87.1878 2.45313 86.2848C2.36887 86.2006 2.28461 86.1163 2.20034 86.0339C1.75066 85.5877 1.32643 85.0423 0.884059 84.4736C0.714745 84.2557 0.542568 84.0344 0.365234 83.8139V0.134521H2000.37V83.2584C1999.72 83.6041 2000.17 83.9285 1999.48 84.0404C1999.1 84.1036 1998.71 84.1668 1998.33 84.272C1998.11 84.3309 1997.89 84.4697 1997.65 84.6217L1997.65 84.6224C1997.53 84.7004 1997.4 84.7829 1997.26 84.859L1997.21 84.6169C1997.11 84.0547 1997.02 83.5519 1996.93 83.0522C1996.85 83.0294 1996.78 83.0138 1996.72 82.9988C1996.57 82.9671 1996.44 82.937 1996.31 82.8441C1996.22 82.7813 1996.13 82.714 1996.04 82.647C1995.36 82.147 1994.7 81.6584 1994.07 83.123C1994.03 83.2312 1993.91 83.2358 1993.79 83.2404C1993.72 83.2428 1993.66 83.2451 1993.61 83.2603C1993.47 83.3063 1993.33 83.3445 1993.19 83.3826C1992.86 83.4723 1992.53 83.5619 1992.22 83.7516C1992.18 83.778 1992.13 83.805 1992.09 83.8318L1992.07 83.8387C1991.51 84.1738 1991 84.4705 1990.5 83.352C1990.37 83.0599 1990 83.095 1989.68 83.1254C1989.62 83.1309 1989.56 83.1364 1989.51 83.1396C1989.3 83.1548 1989.09 83.1773 1988.88 83.1999C1987.66 83.3311 1986.46 83.461 1985.35 82.1301C1985.03 81.7638 1984.59 81.6452 1984.19 81.6202C1983.31 81.5453 1982.46 81.3121 1981.68 80.4837C1981.56 80.3462 1981.35 80.2547 1981.23 80.3421C1980.57 80.8546 1979.87 80.7993 1979.17 80.7439C1978.38 80.6817 1977.6 80.6194 1976.86 81.3641C1976.78 81.4557 1976.63 81.3412 1976.51 81.3641C1976.27 81.3941 1976.03 81.41 1975.79 81.4261C1975.17 81.4678 1974.53 81.5099 1973.95 81.8033C1973.24 82.1405 1972.69 82.0906 1972 81.745C1970.89 81.1893 1969.68 80.6544 1968.6 82.2217C1968.19 82.8129 1967.75 82.7442 1967.25 82.5318C1966.73 82.3466 1966.04 82.205 1965.65 82.6817C1964.52 84.0126 1963.61 83.1073 1962.71 82.204C1962.62 82.1198 1962.54 82.0356 1962.46 81.9532C1962 81.5022 1961.58 80.9514 1961.13 80.3784L1961.13 80.3772C1960.94 80.131 1960.74 79.8806 1960.54 79.6324C1960.53 78.0588 1960.44 77.8985 1959.45 77.7528C1959.13 77.7041 1958.81 77.6832 1958.49 77.6625C1957.25 77.5819 1956.01 77.5016 1954.98 75.8046C1954.93 75.7129 1954.84 75.7358 1954.76 75.7129C1954.54 75.6661 1954.32 75.6318 1954.1 75.5976C1953.66 75.5284 1953.22 75.4596 1952.79 75.2883C1951.74 74.8699 1950.7 74.4058 1949.68 73.7855C1948.8 73.2527 1947.89 72.9945 1946.98 72.8072C1946.46 72.706 1945.93 72.7241 1945.4 72.7421C1945.05 72.7536 1944.71 72.7651 1944.38 72.7448C1943.95 72.7261 1943.51 72.6887 1943.07 72.6511L1943.07 72.6509L1943.05 72.6494C1942.81 72.6288 1942.56 72.6082 1942.32 72.5907L1942.32 72.5075C1942.23 72.522 1942.14 72.5491 1942.04 72.5471C1939.89 72.4866 1937.74 72.3805 1935.86 70.0389C1935.57 69.6769 1935.24 69.3784 1934.9 69.0804C1934.37 68.6036 1933.84 68.1279 1933.47 67.3954C1932.9 66.2705 1932.17 65.7567 1931.47 65.2556C1931.21 65.0736 1930.95 64.8928 1930.71 64.6853C1929.42 63.6029 1927.93 63.1367 1926.49 62.7579C1924.6 62.2817 1922.7 61.9848 1920.79 61.6875L1920.09 61.5783L1919.76 61.5256C1919.04 61.4319 1918.31 61.4049 1917.62 61.6484C1916.48 62.0544 1915.35 62.5726 1914.27 63.2949C1913.17 64.0192 1912.1 64.2149 1911.05 63.3407C1910.98 63.2867 1910.92 63.2326 1910.85 63.1782C1910.22 62.6769 1909.54 62.1436 1909.07 61.3175C1908.27 59.8522 1907.52 59.1152 1906.44 60.5244C1905.82 59.046 1905 59.1734 1904.19 59.2974C1904.09 59.3135 1903.99 59.3296 1903.88 59.3421C1903.66 59.374 1903.43 59.3948 1903.2 59.4157C1902.32 59.4946 1901.43 59.5755 1900.72 60.258C1899.87 61.0889 1899.16 60.7539 1898.45 60.4167C1898.15 60.275 1897.84 60.133 1897.53 60.0769C1897.51 60.0769 1897.48 60.0769 1897.46 60.0821C1897.45 60.0851 1897.43 60.09 1897.42 60.0978C1896.79 60.5671 1896.13 60.6693 1895.47 60.7716C1895.15 60.8221 1894.82 60.8727 1894.5 60.9678C1893.49 61.2592 1893.11 60.9823 1892.55 59.3817C1892.51 59.2542 1892.47 59.1162 1892.42 58.9743L1892.37 58.7941C1892.17 58.1177 1891.96 57.3994 1891.65 57.2045C1891.48 57.0988 1891.32 56.9881 1891.16 56.8772L1891.15 56.87C1890.21 56.2316 1889.27 55.5857 1888.2 55.812C1887.66 55.9283 1887.1 55.8175 1886.54 55.7085L1886.53 55.7066C1886.46 55.6915 1886.38 55.6765 1886.3 55.6621C1886.11 55.629 1885.92 55.5305 1885.73 55.4325C1885.5 55.3144 1885.27 55.197 1885.04 55.1959C1883.74 55.2562 1882.44 55.3853 1881.14 55.6039C1880.65 55.6934 1880.15 56.0535 1879.68 56.4177L1879.55 56.526C1878.79 57.1249 1878.06 57.7078 1877.19 57.702C1876.47 57.6958 1875.7 57.7602 1875.08 58.2598C1873.5 59.5732 1871.88 59.6273 1870.32 58.7281C1868.93 57.9595 1867.57 58.2098 1866.21 58.4611C1865.77 58.5419 1865.34 58.6228 1864.9 58.6699C1864.78 58.6864 1864.66 58.8452 1864.56 58.993L1864.55 58.9943C1864.51 59.0501 1864.47 59.1042 1864.44 59.1485C1863.44 57.4272 1863.29 57.3107 1862.11 58.5595C1861.34 59.3525 1860.5 59.8729 1859.72 59.6169C1858.92 59.3359 1858.26 59.8105 1857.71 60.4495C1855.69 62.787 1853.48 62.633 1851.34 62.096C1849.64 61.6484 1848.33 62.556 1847.11 63.8715C1846.99 63.8041 1846.87 63.7333 1846.76 63.6654L1846.76 63.6619C1846.49 63.4964 1846.25 63.3495 1846 63.3157C1845.8 63.285 1845.59 63.3273 1845.39 63.3696C1845.11 63.4247 1844.84 63.4799 1844.59 63.3739C1843.23 62.7474 1841.94 63.1055 1840.62 63.8486C1840.16 64.0984 1839.61 64.1191 1839.12 63.9984C1838.53 63.8418 1837.95 63.591 1837.37 63.3447C1837.09 63.2247 1836.81 63.1057 1836.54 62.9993C1835.49 66.0528 1834.86 66.5753 1833.34 65.6948C1832.86 67.1102 1832.1 67.4682 1831.21 67.462C1830.46 67.4828 1829.7 67.5452 1828.96 67.7201C1828.54 67.8142 1828.13 68.0435 1827.73 68.2725C1827.64 68.3219 1827.55 68.3714 1827.46 68.4194C1827.29 68.5005 1827.11 68.641 1827 68.7311C1826.96 68.766 1826.93 68.7933 1826.91 68.8067C1826.76 68.5369 1826.62 68.2508 1826.5 67.9827L1826.5 67.9817C1826.25 67.427 1826.03 66.9496 1825.75 66.8542C1825.48 66.7564 1825.16 67.0854 1824.89 67.3564C1824.78 67.4658 1824.69 67.5657 1824.6 67.6244C1824.38 67.4557 1824.17 67.2618 1823.97 67.0741L1823.97 67.0725C1823.53 66.6702 1823.13 66.297 1822.71 66.263C1821.24 66.1423 1819.75 66.1298 1818.32 66.5545C1817.98 66.6568 1817.67 66.604 1817.36 66.5523C1817.06 66.503 1816.77 66.4547 1816.47 66.5419L1816.25 66.5987C1815.72 66.7337 1815.2 66.8662 1814.67 66.9666C1814.53 66.9825 1814.39 66.9648 1814.25 66.9471C1814.02 66.9188 1813.79 66.8904 1813.59 67.002C1812.65 67.4994 1811.82 67.5848 1810.81 66.9604C1809.97 66.457 1809.04 66.4362 1808.1 66.4154C1807.75 66.4076 1807.4 66.3999 1807.06 66.3671C1806.84 66.363 1806.57 66.5211 1806.39 66.7709C1805.75 67.6785 1805.07 67.5848 1804.35 67.308C1803.61 67.0269 1802.93 67.1831 1802.4 68.3653C1802.21 68.7754 1801.87 69.1833 1801.6 69.2062C1801.17 69.2307 1800.73 69.1754 1800.3 69.12C1799.99 69.0812 1799.68 69.0425 1799.38 69.0314C1798.79 69.0023 1798.19 69.0668 1797.61 69.1563C1797.39 69.1884 1797.18 69.2343 1796.96 69.2803C1796.01 69.4845 1795.05 69.6882 1794.15 68.6755C1793.6 68.0573 1793.08 68.4403 1792.78 68.9398C1792.55 68.7955 1792.33 68.6544 1792.12 68.5181L1792.12 68.5167L1792.12 68.5152C1791.56 68.153 1791.05 67.8237 1790.53 67.5536C1790.08 67.3333 1789.62 67.1871 1789.17 67.0408C1789 66.9882 1788.83 66.9354 1788.67 66.8792C1788.45 66.8088 1788.22 66.7251 1788 66.6415C1787.56 66.4776 1787.12 66.3139 1786.68 66.2506C1786.54 66.2297 1786.4 66.2033 1786.26 66.1766C1785.59 66.0493 1784.88 65.9146 1784.32 66.3275C1783.19 67.1414 1782.15 66.9271 1781.04 66.6461C1780.66 66.5524 1780.23 66.5045 1779.89 66.7522C1778.88 67.4787 1778.1 67.129 1777.46 65.6199C1777.13 64.8622 1776.71 64.3793 1776.13 64.398L1772.4 64.3731C1771.59 62.1751 1771.41 62.0835 1769.97 63.0327C1769.83 63.13 1769.7 63.2481 1769.56 63.3672L1769.56 63.3681C1769.41 63.4983 1769.26 63.6298 1769.1 63.7361C1768.89 63.8715 1768.64 63.9818 1768.41 63.9818C1767.94 64.0195 1767.46 64.0329 1766.99 64.0464L1766.99 64.0464L1766.98 64.0466C1766.67 64.0553 1766.36 64.0641 1766.05 64.0796C1765.98 64.0869 1765.9 64.1142 1765.81 64.1418C1765.63 64.2014 1765.44 64.2622 1765.35 64.1212C1764.88 63.247 1764.31 63.2209 1763.73 63.195C1763.45 63.1821 1763.16 63.1692 1762.89 63.0534C1762.38 62.839 1761.93 63.0438 1761.46 63.2522C1761.33 63.3148 1761.18 63.3783 1761.04 63.4302C1759.97 63.7978 1758.87 63.9506 1757.78 64.1019L1757.46 64.1467C1757.33 64.1649 1757.2 64.1833 1757.08 64.2024C1756.96 64.2137 1756.84 64.0969 1756.72 63.9766C1756.62 63.876 1756.52 63.7725 1756.41 63.7403C1755.89 63.578 1755.35 63.4822 1754.81 63.4551C1754.7 63.4448 1754.59 63.5031 1754.48 63.5602C1754.34 63.6301 1754.21 63.6981 1754.1 63.6362C1753.31 63.1283 1752.63 63.5114 1751.97 64.396C1751.57 63.95 1751.19 63.5153 1750.87 63.1518C1750.71 62.9723 1750.57 62.8102 1750.46 62.6726C1750.18 62.6705 1749.92 62.7 1749.68 62.7277L1749.68 62.7278C1749.2 62.7822 1748.79 62.8294 1748.41 62.6142C1748.02 62.3839 1747.61 62.3616 1747.2 62.3395C1746.62 62.3081 1746.04 62.2769 1745.53 61.6589C1745.46 61.5673 1745.3 61.6339 1745.19 61.6568L1745.08 61.6989C1743.58 62.2666 1742.09 62.8348 1741.03 65.1016C1740.69 65.8509 1740.32 65.9633 1739.88 65.572C1739.8 65.4955 1739.71 65.4233 1739.63 65.3503C1739.5 65.2463 1739.38 65.1406 1739.25 65.0183C1738.66 66.2027 1738.09 66.6772 1737.37 65.4867C1737.17 65.1432 1736.79 65.0267 1736.48 65.0017C1735.93 64.9288 1735.39 64.856 1734.92 64.1691C1734.79 63.9741 1734.6 63.9141 1734.42 63.8552L1734.34 63.8321C1734.31 63.8216 1734.28 63.8106 1734.25 63.7986C1733.33 63.4281 1732.42 63.4884 1731.46 63.6446C1730.68 63.7587 1729.91 63.6241 1729.13 63.4892C1727.98 63.2897 1726.83 63.0896 1725.68 63.6945C1725.67 63.6945 1725.65 63.6901 1725.63 63.6852C1725.61 63.6789 1725.59 63.6716 1725.57 63.6716C1724.81 63.4473 1724.1 63.8131 1723.39 64.1803C1722.92 64.4265 1722.44 64.6734 1721.94 64.7436C1721.33 64.8289 1720.7 65.1016 1720.13 65.5054C1719.09 66.2526 1718.09 67.0915 1717.1 68.0199C1716.85 68.2387 1716.66 68.6583 1716.48 69.0734L1716.48 69.0745C1716.41 69.2198 1716.35 69.3644 1716.28 69.4998C1715.96 70.1596 1714.76 70.2428 1714.48 69.4644L1714.42 69.5039C1713.87 69.8267 1713.35 70.1379 1712.72 70.5259C1712.18 69.6101 1711.55 69.7433 1710.91 70.7216C1710.65 71.1241 1710.34 71.4521 1710.04 71.7777C1709.96 71.8563 1709.89 71.9348 1709.82 72.0141C1709.75 72.0831 1709.69 72.153 1709.62 72.2233L1709.5 72.3581C1708.38 73.5873 1707.27 74.8132 1705.94 72.9466C1705.83 72.8017 1705.67 72.7739 1705.51 72.7456C1705.42 72.7287 1705.32 72.7117 1705.24 72.6698C1705.16 72.63 1705.08 72.5995 1705 72.5688C1704.79 72.4919 1704.58 72.4133 1704.49 72.1828C1704.05 71.0635 1703.45 71.1024 1702.82 71.1436L1702.78 71.1462L1702.71 71.1488C1701.78 71.1861 1700.81 71.2249 1699.99 70.3261C1698.88 69.1147 1697.66 68.6193 1696.43 68.12L1696.42 68.1142L1696.27 68.0516L1696.07 67.9698C1695.89 67.9004 1695.7 67.8599 1695.51 67.8193C1695.07 67.7259 1694.63 67.632 1694.38 67.1851C1693.89 66.3468 1693.32 65.8765 1692.74 65.409C1692.44 65.1603 1692.14 64.9124 1691.85 64.6104C1691.48 64.219 1691.17 63.6696 1690.86 63.1201C1690.72 62.8633 1690.59 62.5773 1690.47 62.2927L1690.47 62.2916C1690.3 61.9147 1690.14 61.5404 1689.94 61.2404C1687.83 58.2119 1685.37 57.1441 1682.71 57.3543C1682.09 57.3959 1681.56 57.3689 1681.25 56.5217C1681.05 56.6339 1680.86 56.7422 1680.66 56.8488C1680.04 57.1932 1679.46 57.5198 1678.89 57.8998C1678.43 58.2182 1677.95 58.649 1677.6 59.261C1676.96 60.3996 1676.21 61.0323 1675.34 60.7305C1674.61 60.4745 1673.99 60.8138 1673.41 61.4486C1672.75 62.15 1672.13 62.9223 1671.55 63.8111C1670.68 65.085 1670.52 65.1515 1669.68 63.7299C1669.32 63.1555 1668.96 62.7203 1668.52 63.3115C1667.68 64.423 1666.76 64.371 1665.79 64.1608C1665.71 64.1429 1665.62 64.1222 1665.54 64.1011C1665.07 63.9854 1664.56 63.8598 1664.16 64.1275C1663.24 64.781 1662.44 64.5271 1661.67 63.6737C1661.13 63.0992 1660.64 62.7329 1659.99 62.9785C1659.74 63.0951 1659.29 62.8827 1659.17 62.5393C1658.53 60.8471 1657.67 60.8637 1656.73 61.2675C1656.57 61.3513 1656.4 61.4095 1656.2 61.4779L1656.19 61.4812C1656.12 61.5053 1656.04 61.5307 1655.96 61.559C1655.63 60.2768 1654.99 59.9562 1654.31 59.8146L1654.3 59.8131C1654.05 59.7657 1653.8 59.7164 1653.62 59.4899C1653.23 58.9612 1652.89 59.1653 1652.52 59.5066C1652.36 59.6603 1652.18 59.763 1652.01 59.8642C1651.87 59.9412 1651.74 60.0173 1651.62 60.1144C1650.82 60.7929 1650.09 60.4474 1649.56 59.3484C1648.98 58.1578 1648.29 57.7165 1647.45 57.6873C1647.18 57.6873 1646.86 57.6853 1646.63 57.4542C1646.09 56.9201 1645.5 56.936 1644.92 56.952C1644.57 56.9614 1644.23 56.9708 1643.89 56.8673C1643.67 56.7757 1643.36 57.0692 1643.14 57.2961C1641.56 58.9279 1639.89 59.9687 1638.07 60.0249C1637.51 60.0186 1637.18 60.2226 1636.94 61.1343C1636.76 61.7733 1636.48 62.3208 1636.2 62.8411C1636.01 63.1617 1635.75 63.503 1635.52 63.5467C1635.14 63.6264 1634.75 63.6392 1634.37 63.652L1634.37 63.652C1634.12 63.6603 1633.87 63.6685 1633.63 63.6945C1633.32 63.7361 1632.99 63.8028 1632.72 64.0526C1631.86 64.9372 1630.92 65.137 1630.04 64.4897C1629.5 64.0984 1629.06 64.0525 1628.55 64.2981C1628.53 64.3129 1628.5 64.3285 1628.48 64.3445L1628.41 64.3852C1628.18 64.5311 1627.93 64.6861 1627.74 64.5896C1627.2 64.3326 1626.69 64.5103 1626.17 64.6878C1625.85 64.7979 1625.53 64.9079 1625.21 64.9143C1624.98 64.9319 1624.75 65.2851 1624.54 65.613C1624.47 65.7117 1624.41 65.8082 1624.35 65.8926C1624.2 66.0943 1624.07 66.326 1623.93 66.5565C1623.68 66.9726 1623.43 67.3865 1623.14 67.6181C1622.16 68.4093 1621.15 69.0788 1620.15 69.7449L1619.71 70.0389C1619.5 70.1741 1619.23 70.1263 1619.01 70.0576C1618.22 69.8245 1617.45 69.6829 1616.73 70.5655C1616.6 70.7257 1616.43 70.7923 1616.27 70.8152C1614.78 70.988 1613.48 72.2119 1612.24 73.5961C1611.36 74.6181 1610.47 75.1135 1609.44 74.947C1609.18 74.9012 1608.86 74.9886 1608.64 75.1947C1607.38 76.3749 1606.12 76.2958 1604.84 75.3758C1604.6 75.1884 1604.26 75.0718 1604.04 75.2529C1603.1 75.9794 1602.27 75.4258 1601.57 74.5057C1600.99 73.7289 1600.41 73.7458 1599.78 73.7645L1599.77 73.7647C1599.27 73.7855 1598.75 73.8022 1598.23 73.798C1597.69 73.8188 1597.23 74.0686 1596.89 74.9344C1596.05 77.0492 1595.16 79.0766 1593.69 79.8884C1593.48 80.0031 1593.32 80.3217 1593.15 80.6366C1593.09 80.7558 1593.02 80.8743 1592.96 80.9811C1592.76 81.2975 1591.76 80.3567 1591.53 79.6677C1590.89 79.2533 1590.23 79.242 1589.57 79.2307C1588.83 79.2182 1588.1 79.2058 1587.41 78.6353C1587.24 78.4979 1586.95 78.7248 1586.74 78.8601C1585.76 79.5637 1584.79 80.2173 1583.73 79.7552C1583.62 79.7053 1583.51 79.7351 1583.39 79.765C1583.34 79.7775 1583.3 79.7901 1583.25 79.7968C1582.63 79.8593 1582.01 79.9467 1581.39 80.0341C1581.15 80.057 1580.89 79.9404 1580.68 80.0986C1579.51 81.0249 1578.32 80.6086 1577.26 79.8718L1577.25 79.8676C1576.32 79.1988 1575.43 78.5567 1574.44 78.7769C1574.34 78.3072 1574.27 77.9561 1574.16 77.4263L1574.14 77.3157C1573.77 77.4036 1573.41 77.5007 1573.06 77.5971L1573.06 77.5974C1572.42 77.7682 1571.8 77.9367 1571.17 78.0484L1571.13 78.0544C1570.73 78.121 1570.18 78.213 1569.94 77.811C1569.17 76.4703 1568.2 76.047 1567.24 75.6257C1566.77 75.4205 1566.3 75.2155 1565.85 74.9053C1565.46 74.6171 1565.02 74.5401 1564.58 74.4629C1564.42 74.4353 1564.26 74.4077 1564.11 74.3704C1563.76 74.2767 1563.4 74.2517 1563.04 74.2476C1562.38 74.2454 1561.71 74.2851 1561.04 74.2809C1560.87 74.2796 1560.7 74.2519 1560.53 74.2244C1560.17 74.1664 1559.81 74.1087 1559.5 74.2934L1559.44 74.3302C1558.1 75.1296 1556.78 75.9133 1555.35 75.5443C1555.28 75.5214 1555.21 75.5881 1555.12 75.611C1554.82 75.6825 1554.52 75.7587 1554.22 75.8351L1554.22 75.8358C1553.58 75.9969 1552.94 76.1585 1552.3 76.277C1552.12 76.2899 1551.94 76.1641 1551.76 76.0395L1551.76 76.0378C1551.68 75.9817 1551.6 75.9261 1551.52 75.8836C1551.1 75.6526 1550.7 75.3528 1550.28 75.1676L1550.26 75.16C1549.65 74.9068 1549.09 74.6692 1548.6 73.7626C1548.13 72.8697 1547.41 72.3389 1546.75 73.0653C1545.48 74.4724 1544.14 74.3954 1542.76 73.9728C1542.7 73.9571 1542.63 73.9377 1542.57 73.9182C1542.36 73.8524 1542.14 73.7851 1541.94 73.8542C1541.33 74.0841 1540.71 74.1943 1540.1 74.3045C1538.91 74.5175 1537.71 74.7305 1536.6 75.8087C1536.05 76.327 1535.37 76.8932 1534.65 76.2957C1534.49 76.1584 1534.11 76.5206 1533.97 76.8411C1533.21 78.707 1532.15 78.8327 1531.08 78.9583C1530.86 78.9842 1530.64 79.0102 1530.43 79.0516C1530.33 79.0694 1530.24 79.0806 1530.14 79.092C1529.88 79.1231 1529.62 79.1544 1529.39 79.3222C1528.97 79.6342 1528.62 79.4867 1528.23 79.3187C1528.17 79.293 1528.1 79.2661 1528.04 79.2411L1527.98 79.2218C1527.08 78.902 1526.08 78.5522 1525.24 78.9725C1525.08 79.0518 1524.93 79.133 1524.78 79.2143L1524.77 79.2161L1524.76 79.2212C1524.18 79.5308 1523.59 79.8419 1522.99 80.0549C1522.8 80.0965 1522.57 80.2568 1522.47 80.5295C1521.96 81.7367 1521.31 81.616 1520.63 81.2955C1520.01 81.0165 1519.45 81.1477 1518.98 82.0135C1518.87 82.1986 1518.72 82.309 1518.56 82.4313C1518.48 82.4907 1518.4 82.5528 1518.31 82.6276C1517.92 81.1622 1517.28 80.6543 1516.44 80.8084C1516.3 80.8322 1516.16 80.7748 1516.01 80.7172C1515.88 80.6643 1515.75 80.6111 1515.62 80.621C1515.58 80.625 1515.54 80.6285 1515.5 80.6319L1515.43 80.6384C1515.06 80.6696 1514.68 80.7027 1514.35 80.9562C1512.92 82.0635 1511.44 83.0127 1509.89 83.2979C1509.07 83.454 1508.29 83.7932 1507.52 84.2199C1507.16 84.4103 1506.79 84.5254 1506.42 84.64C1506.01 84.7697 1505.59 84.8993 1505.19 85.1379C1504.59 85.5021 1504.06 85.6124 1503.46 85.2419C1502.31 84.5051 1501.23 84.8631 1500.17 85.9954C1499.64 86.5865 1499.07 86.8114 1498.37 86.6261C1498.21 86.5875 1498.05 86.5438 1497.89 86.4999C1496.86 86.2215 1495.79 85.9336 1494.78 86.8738C1494.52 87.1078 1494.27 87.3357 1494.03 87.5544L1494.02 87.5607L1494.01 87.5702L1494 87.5835C1493.78 87.7785 1493.57 87.9659 1493.38 88.1435C1492.79 88.002 1492.24 87.8396 1491.7 87.698C1491.23 87.6064 1490.76 87.5086 1490.3 87.415C1489.34 87.2485 1488.44 86.7406 1487.55 86.0954C1487.06 85.7526 1486.52 85.638 1485.98 85.5224C1485.65 85.4513 1485.31 85.3797 1484.99 85.2544C1484.49 85.0558 1484 84.8046 1483.51 84.5534L1483.5 84.5518C1483.02 84.306 1482.54 84.0604 1482.06 83.864C1481.74 83.7416 1481.42 83.7222 1481.1 83.7028C1480.87 83.6892 1480.64 83.6756 1480.42 83.6267C1480.02 83.5414 1479.62 83.7071 1479.21 83.873C1478.62 84.1196 1478.02 84.3665 1477.41 83.7891C1477.34 83.7285 1477.23 83.7836 1477.12 83.8728C1477.06 83.9217 1477.01 83.9808 1476.96 84.0368C1476.12 85.1478 1475.17 85.169 1474.22 85.1903C1473.83 85.199 1473.44 85.2077 1473.05 85.2919C1472.85 85.3356 1472.58 85.1275 1472.39 84.8756C1471.83 84.1387 1471.29 84.3865 1470.71 84.8194L1470.53 84.9459C1469.53 85.6753 1468.52 86.4099 1467.37 85.7332C1467.01 85.525 1466.55 85.5666 1466.19 85.7915C1465.28 86.3303 1464.37 86.2975 1463.46 86.2648C1463.27 86.2578 1463.07 86.2509 1462.88 86.2494C1462.57 86.2468 1462.26 86.1574 1461.94 86.0672C1461.75 86.011 1461.55 85.9544 1461.35 85.9184C1460.84 85.8456 1460.3 85.8435 1459.53 85.7935C1459.5 85.8601 1459.38 85.9954 1459.26 86.1099C1458.41 86.9737 1457.57 87.6523 1456.55 86.8676C1456.21 86.614 1455.84 86.4456 1455.48 86.2773C1455.12 86.11 1454.76 85.9425 1454.42 85.6915C1453.92 85.3115 1453.53 85.6731 1453.14 86.0308C1452.86 86.2824 1452.59 86.532 1452.28 86.52C1452.25 86.5064 1452.23 86.5106 1452.2 86.5146C1452.19 86.5166 1452.17 86.5186 1452.16 86.5179C1451.64 86.2655 1451.09 86.2256 1450.55 86.1857C1449.75 86.1268 1448.95 86.0678 1448.2 85.3273C1447.86 85.0088 1447.33 84.8673 1446.94 85.0463C1445.93 85.5666 1445.06 85.0338 1444.18 84.272C1442.89 83.1609 1441.49 82.9678 1440.11 82.7767L1440.11 82.7759C1439.8 82.7339 1439.5 82.6918 1439.2 82.6401C1439.04 82.6143 1438.87 82.5941 1438.71 82.5739C1438.13 82.501 1437.55 82.429 1436.99 82.1031C1436.94 82.0708 1436.89 82.0353 1436.83 81.9993C1436.58 81.8259 1436.3 81.6391 1436.08 81.7305C1435.15 82.1364 1434.52 81.3309 1433.99 80.2568C1433.61 79.5221 1433.3 79.5428 1432.83 79.905C1431.97 80.5628 1431.09 80.6232 1430.18 79.9321C1429.52 79.4242 1428.78 79.2161 1428.36 80.2402L1426.04 80.2234C1425.47 79.0329 1424.76 78.0921 1423.88 78.3356C1422.52 78.6936 1421.19 78.8685 1419.87 78.2898C1419.78 78.2626 1419.69 78.2946 1419.6 78.3269C1419.53 78.3514 1419.46 78.3761 1419.39 78.3751C1419.04 78.3725 1418.69 78.395 1418.33 78.4175C1417.58 78.4662 1416.82 78.5149 1416.08 78.3085C1415.47 78.1272 1414.86 77.8933 1414.25 77.6592C1412.9 77.138 1411.54 76.6158 1410.12 76.6704C1409.91 76.6784 1409.7 76.5549 1409.48 76.4323C1409.25 76.3005 1409.02 76.1696 1408.8 76.2041C1408.45 76.2588 1408.1 76.2855 1407.75 76.3121C1406.83 76.382 1405.91 76.4517 1405.02 77.0243C1404.28 77.4988 1403.51 77.9276 1402.74 78.0359C1401.23 78.2773 1399.87 79.1578 1398.62 80.4733C1397.53 79.9175 1396.49 79.3639 1395.67 78.9246C1395.17 79.0912 1394.69 79.246 1394.22 79.3963C1393.37 79.6719 1392.56 79.9325 1391.76 80.2234C1391.63 80.269 1391.5 80.3125 1391.37 80.356C1390.34 80.6959 1389.33 81.0306 1388.44 82.28C1388.03 82.8232 1387.28 83.0689 1386.76 82.8607C1385.94 82.5131 1385.46 82.944 1385.08 84.1512C1384.84 84.9256 1384.48 85.1524 1384 85.2856C1383.37 85.4735 1382.72 85.4919 1382.07 85.5102C1381.18 85.5355 1380.28 85.5609 1379.41 86.0329C1379.05 86.2223 1378.68 86.3563 1378.28 86.4975L1378.28 86.4988C1378.11 86.5572 1377.94 86.6168 1377.77 86.6824C1376.86 85.5333 1375.25 85.4542 1374.22 86.7031C1373.45 87.6814 1372.56 88.0644 1371.7 88.2642C1370.62 88.5149 1369.53 88.6687 1368.44 88.8222C1367.71 88.926 1366.97 89.0298 1366.24 89.1634L1366.21 89.1687C1365.49 89.2751 1364.84 89.3726 1364.14 88.8054C1363.7 88.4828 1363.11 88.5015 1362.62 88.6576C1361.32 89.0843 1360.07 88.9158 1358.74 88.4495C1358.85 86.7224 1358.27 86.3064 1357.71 85.9045C1357.45 85.7169 1357.19 85.5323 1357.01 85.219C1356.78 85.3598 1356.56 85.5186 1356.35 85.672C1355.93 85.9833 1355.53 86.2725 1355.13 86.3451C1353.79 86.5907 1352.41 86.7406 1351.14 85.8664C1349.94 85.0338 1348.79 84.4551 1347.47 85.1545C1346.82 85.5022 1346.14 85.6145 1345.45 85.7264C1345.07 85.7888 1344.68 85.8512 1344.31 85.9538C1343.96 86.0454 1343.64 86.316 1343.23 86.5429C1343.11 85.8768 1343.01 85.3085 1342.9 84.7361C1342.81 84.706 1342.72 84.6884 1342.64 84.6684C1342.51 84.6398 1342.4 84.6066 1342.29 84.5259C1342.2 84.4643 1342.11 84.3983 1342.02 84.3326L1342.02 84.3311C1341.34 83.8308 1340.68 83.3404 1340.05 84.8089C1340.01 84.9137 1339.88 84.9181 1339.76 84.9224C1339.7 84.9246 1339.64 84.9268 1339.59 84.9422C1339.45 84.9873 1339.32 85.025 1339.18 85.0625C1338.84 85.1529 1338.51 85.2427 1338.2 85.4355C1338.16 85.4555 1338.13 85.4758 1338.09 85.4961L1338.05 85.5201L1338.05 85.5233C1337.48 85.8578 1336.98 86.1518 1336.48 85.0359C1336.32 84.6924 1335.83 84.8027 1335.48 84.8215C1335.28 84.837 1335.07 84.8598 1334.86 84.8825C1333.64 85.0154 1332.44 85.147 1331.32 83.8119C1331 83.4456 1330.56 83.329 1330.17 83.3041C1329.28 83.2291 1328.44 82.994 1327.66 82.1655C1327.53 82.0302 1327.32 81.9365 1327.21 82.0281C1326.55 82.5382 1325.85 82.4828 1325.15 82.4275C1324.36 82.3651 1323.57 82.3028 1322.84 83.0481C1322.75 83.1397 1322.6 83.0231 1322.48 83.046C1322.25 83.0759 1322.01 83.0919 1321.77 83.1079C1321.14 83.1496 1320.51 83.1917 1319.92 83.4852C1319.22 83.8224 1318.67 83.7724 1317.98 83.4269C1316.86 82.8711 1315.66 82.3383 1314.58 83.9056C1314.17 84.4968 1313.73 84.426 1313.23 84.2179C1312.71 84.0305 1312.02 83.889 1311.63 84.3677C1310.49 85.6946 1309.59 84.7911 1308.69 83.8883L1308.67 83.8735C1308.59 83.7941 1308.51 83.7148 1308.43 83.6371C1307.98 83.1909 1307.56 82.6442 1307.12 82.0753C1306.92 81.8246 1306.72 81.5695 1306.52 81.3163C1306.5 79.7406 1306.42 79.5804 1305.42 79.4388C1305.1 79.3896 1304.78 79.3683 1304.46 79.3471C1303.22 79.2652 1301.98 79.1836 1300.96 77.4905C1300.92 77.4256 1300.86 77.4172 1300.81 77.4089C1300.78 77.4054 1300.76 77.4021 1300.74 77.3948C1300.53 77.351 1300.31 77.3183 1300.1 77.2856L1300.1 77.2851C1299.65 77.2153 1299.2 77.1457 1298.76 76.9702C1297.72 76.5538 1296.68 76.0918 1295.66 75.4674C1294.78 74.9366 1293.87 74.6784 1292.96 74.4891C1292.44 74.3878 1291.9 74.4058 1291.37 74.4238Z" fill="#00265F"/>
</svg>
